#!OML:ASF H:\Terrain\Patient Classification 1\Walking\liu\liu.ASF
:FULLY-SPECIFIED
:DEGREES
285
root 9.17462 17.3996 26.0926 2.69217 5.23854 -4.19759
lowerback -5.95066 -1.3586 -0.707877
upperback -0.800006 -1.87402 3.95928
thorax 2.66864 -0.960351 4.34268
lowerneck -21.5513 -3.12825 -11.453
upperneck 30.4365 -3.67861 10.0018
head 14.5106 -1.52554 5.43591
rclavicle -2.73329e-016 1.51076e-014
rhumerus -39.8859 6.72864 -83.9895
rradius 22.0626
rwrist -4.42126
rhand -24.5804 -27.4065
rfingers 7.12502
rthumb 1.91677 -57.3777
lclavicle -2.73329e-016 1.51076e-014
lhumerus -23.544 -18.8839 95.7204
lradius 30.8179
lwrist 5.68196
lhand -12.781 -24.0782
lfingers 7.12502
lthumb 13.3042 5.47715
rfemur -11.8182 -4.21997 31.6697
rtibia 22.5709
rfoot -11.4149 7.39991
rtoes -14.0429
lfemur -21.8279 7.79644 -14.2756
ltibia 72.3553
lfoot -5.93501 13.1803
ltoes -5.52359
286
root 9.16416 17.3923 26.2346 2.83429 4.67924 -4.45055
lowerback -5.74346 -1.06312 -0.486713
upperback -0.810516 -1.49125 4.00762
thorax 2.50599 -0.765172 4.30301
lowerneck -21.5977 -3.08885 -11.2532
upperneck 30.3558 -3.62874 9.83892
head 14.4686 -1.49941 5.33515
rclavicle -1.45858e-014 2.38542e-014
rhumerus -39.1656 7.83545 -84.5237
rradius 23.107
rwrist -5.43477
rhand -24.6846 -28.1926
rfingers 7.12502
rthumb 1.81622 -58.1647
lclavicle -1.45858e-014 2.38542e-014
lhumerus -24.3061 -18.2229 95.7407
lradius 29.7485
lwrist 5.05823
lhand -11.8877 -23.3083
lfingers 7.12502
lthumb 14.1653 6.18881
rfemur -11.4208 -2.74467 32.0896
rtibia 22.5592
rfoot -11.8724 6.32439
rtoes -12.5491
lfemur -23.8927 8.22573 -14.2468
ltibia 72.4668
lfoot -6.25706 12.5146
ltoes -5.39653
287
root 9.14382 17.3854 26.3297 3.14658 4.29289 -4.64428
lowerback -4.76349 -0.794995 -0.398545
upperback -1.27857 -1.10633 4.06958
thorax 1.44397 -0.555351 4.35892
lowerneck -21.5158 -3.17081 -11.3514
upperneck 30.6251 -3.68445 9.69055
head 14.579 -1.562 5.29381
rclavicle -6.1002e-015 1.27222e-014
rhumerus -38.8933 8.81979 -84.9442
rradius 24.3415
rwrist -6.68195
rhand -24.3079 -28.5647
rfingers 7.12502
rthumb 2.18003 -58.5333
lclavicle -6.1002e-015 1.27222e-014
lhumerus -25.4911 -17.3118 95.8748
lradius 28.6348
lwrist 4.39492
lhand -11.5939 -23.2794
lfingers 7.12502
lthumb 14.4484 6.19767
rfemur -11.5384 -1.13526 32.5381
rtibia 22.6793
rfoot -11.9013 4.78529
rtoes -9.885
lfemur -26.4534 8.38927 -14.3231
ltibia 72.264
lfoot -6.57173 12.1647
ltoes -8.15056
288
root 9.11994 17.3686 26.4005 3.6853 3.76161 -5.02828
lowerback -3.61521 -0.527858 -0.197187
upperback -1.9467 -0.712488 4.16338
thorax 0.0820519 -0.335981 4.37598
lowerneck -21.633 -3.20085 -11.3169
upperneck 31.1091 -3.69822 9.52614
head 14.8221 -1.59391 5.24454
rclavicle -1.73067e-014 2.90226e-014
rhumerus -38.6952 9.82442 -85.4745
rradius 25.4064
rwrist -7.55594
rhand -24.233 -28.5958
rfingers 7.12502
rthumb 2.25235 -58.5636
lclavicle -1.73067e-014 2.90226e-014
lhumerus -26.9549 -16.332 95.8252
lradius 27.7502
lwrist 3.72208
lhand -11.4556 -23.352
lfingers 7.12502
lthumb 14.5816 6.11546
rfemur -12.0446 0.629585 33.2223
rtibia 22.8371
rfoot -11.9972 3.17258
rtoes -9.60708
lfemur -29.3863 8.61001 -14.2514
ltibia 71.796
lfoot -6.83555 12.1467
ltoes -8.89493
289
root 9.15597 17.3927 26.6674 3.6824 3.53431 -4.15802
lowerback -4.74036 -0.515139 -0.646435
upperback -1.57093 -0.707516 3.80732
thorax 1.09802 -0.348531 4.25111
lowerneck -21.8305 -3.17732 -11.3959
upperneck 31.1109 -3.65966 9.6714
head 14.8669 -1.56341 5.33152
rclavicle 3.64024e-015 1.59028e-015
rhumerus -37.8838 11.1208 -85.9907
rradius 26.3289
rwrist -8.41061
rhand -24.7949 -28.8512
rfingers 7.12502
rthumb 1.70967 -58.824
lclavicle 3.64024e-015 1.59028e-015
lhumerus -27.8395 -15.3942 95.5044
lradius 26.8972
lwrist 3.14588
lhand -10.885 -22.9032
lfingers 7.12502
lthumb 15.1313 6.52365
rfemur -10.8622 -0.887242 32.1443
rtibia 22.9605
rfoot -12.6738 4.65835
rtoes -8.91964
lfemur -29.5646 8.10777 -15.7702
ltibia 70.4123
lfoot -8.54397 12.5193
ltoes -7.69006
290
root 9.19194 17.4092 26.9291 3.46473 3.06396 -3.74033
lowerback -5.52011 -0.362821 -0.575335
upperback -1.23387 -0.524407 3.56607
thorax 1.86351 -0.269109 3.96831
lowerneck -21.445 -3.0288 -11.6324
upperneck 30.5872 -3.5002 10.0691
head 14.5333 -1.46454 5.53801
rclavicle -1.02374e-014 -1.51076e-014
rhumerus -37.2425 12.4649 -86.4575
rradius 27.4155
rwrist -9.8086
rhand -24.89 -29.3555
rfingers 7.12502
rthumb 1.61784 -59.3291
lclavicle -1.02374e-014 -1.51076e-014
lhumerus -28.8651 -14.7352 95.3228
lradius 25.9149
lwrist 2.75709
lhand -10.5097 -22.2601
lfingers 7.12502
lthumb 15.4927 7.13916
rfemur -9.39942 -2.78352 31.4072
rtibia 22.891
rfoot -13.2198 6.70137
rtoes -8.24891
lfemur -29.6063 8.00236 -16.7185
ltibia 68.9542
lfoot -9.9213 12.5825
ltoes -6.24596
291
root 9.19344 17.4022 27.0825 3.66038 2.3981 -4.30184
lowerback -4.62973 -0.0240127 0.210792
upperback -1.94415 -0.0738466 3.59211
thorax 0.601607 -0.0249217 3.5759
lowerneck -21.0649 -3.20035 -11.9208
upperneck 30.9192 -3.78552 10.2755
head 14.6544 -1.60877 5.64318
rclavicle -6.5102e-015 -4.37326e-015
rhumerus -37.7266 13.4444 -87.0242
rradius 28.7915
rwrist -11.0728
rhand -24.9675 -29.6297
rfingers 7.12502
rthumb 1.543 -59.6038
lclavicle -6.5102e-015 -4.37326e-015
lhumerus -30.8951 -14.1796 95.3668
lradius 24.8248
lwrist 2.25199
lhand -10.4652 -21.724
lfingers 7.12502
lthumb 15.5357 7.67196
rfemur -8.83497 -2.29222 32.1085
rtibia 22.6353
rfoot -13.6464 6.18168
rtoes -10.4292
lfemur -31.187 8.41767 -16.4104
ltibia 67.5894
lfoot -10.0342 12.4364
ltoes -4.6204
292
root 9.20144 17.3929 27.2478 3.93284 1.87612 -4.83067
lowerback -5.18819 0.200122 0.901295
upperback -1.55947 0.163039 3.64921
thorax 1.29649 0.0857765 3.26249
lowerneck -21.5574 -3.2618 -11.6947
upperneck 30.6156 -3.80939 10.0623
head 14.6207 -1.60499 5.49253
rclavicle 5.31749e-015 7.55382e-015
rhumerus -36.2177 14.5184 -87.1291
rradius 29.9166
rwrist -12.1972
rhand -25.2157 -29.1347
rfingers 7.12502
rthumb 1.30321 -59.1105
lclavicle 5.31749e-015 7.55382e-015
lhumerus -30.9621 -13.2431 94.7558
lradius 23.5255
lwrist 1.2448
lhand -11.1881 -21.4198
lfingers 7.12502
lthumb 14.8393 8.02879
rfemur -8.30913 -2.14152 32.7302
rtibia 22.3388
rfoot -13.5984 5.93786
rtoes -11.5082
lfemur -32.6576 8.62629 -16.1722
ltibia 66.0698
lfoot -10.7129 12.3781
ltoes -5.00412
293
root 9.21246 17.3941 27.4223 4.19614 1.4584 -4.80247
lowerback -5.63048 0.360184 1.01659
upperback -1.30561 0.34756 3.58317
thorax 1.79662 0.174815 3.14708
lowerneck -21.8632 -3.20769 -11.2436
upperneck 30.307 -3.6696 9.5509
head 14.5058 -1.54899 5.20244
rclavicle -1.20762e-014 -3.06128e-014
rhumerus -35.018 15.5059 -87.1359
rradius 31.2339
rwrist -13.3092
rhand -24.8662 -29.2823
rfingers 7.12502
rthumb 1.6408 -59.2558
lclavicle -1.20762e-014 -3.06128e-014
lhumerus -31.408 -11.971 94.1377
lradius 22.3343
lwrist -0.0875275
lhand -12.6636 -21.7816
lfingers 7.12502
lthumb 13.4175 7.76625
rfemur -7.72776 -2.32554 32.6662
rtibia 22.0285
rfoot -13.6705 6.23061
rtoes -11.3962
lfemur -33.8684 8.52175 -16.5465
ltibia 64.2936
lfoot -11.5288 12.513
ltoes -7.57198
294
root 9.22841 17.4112 27.5994 4.33533 0.944968 -4.42342
lowerback -6.02393 0.521896 0.821653
upperback -0.955906 0.552684 3.46912
thorax 2.36647 0.271847 3.16282
lowerneck -22.2258 -3.20559 -11.2652
upperneck 29.9254 -3.58349 9.52739
head 14.4036 -1.50363 5.19406
rclavicle 8.90959e-015 -7.95139e-015
rhumerus -33.7684 16.3717 -86.8998
rradius 32.7277
rwrist -14.3239
rhand -24.4159 -30.2735
rfingers 7.12502
rthumb 2.07568 -60.2431
lclavicle 8.90959e-015 -7.95139e-015
lhumerus -31.7944 -10.3949 93.4476
lradius 21.1637
lwrist -1.85893
lhand -12.8556 -22.503
lfingers 7.12502
lthumb 13.2324 7.05704
rfemur -6.96521 -2.95068 32.1286
rtibia 21.5975
rfoot -13.6991 7.05781
rtoes -11.9563
lfemur -34.697 8.33669 -17.2565
ltibia 62.1123
lfoot -12.0507 12.6779
ltoes -8.47217
